<?xml version="1.0" encoding="utf-8"?>
<!-- Generator: Adobe Illustrator 24.2.2, SVG Export Plug-In . SVG Version: 6.00 Build 0)  -->
<svg version="1.1" id="Layer_1" xmlns="http://www.w3.org/2000/svg" xmlns:xlink="http://www.w3.org/1999/xlink" x="0px" y="0px"
	 viewBox="0 0 652.3 317.5" style="enable-background:new 0 0 652.3 317.5;" xml:space="preserve">
<style type="text/css">
	.st0{fill:#2E3335;}
	.st1{fill:url(#SVGID_1_);}
	.st2{fill:url(#SVGID_2_);}
	.st3{fill:#C2DFF0;}
	.st4{fill:url(#SVGID_3_);}
	.st5{fill:url(#SVGID_4_);}
</style>
<path class="st0" d="M160.6,144.2c13.8-15.2,23.1-35.2,23.1-58.3c0-53.2-45-85.9-90-85.9H0v317.5h107.7c54.4,0,96.3-41.9,96.3-92.1
	C204.1,190.7,187,161.1,160.6,144.2z M61.4,52.7h21.7c18.7,0,37.4,13.6,37.4,35.7s-20.4,37.4-37.4,37.4H61.4V52.7z M103.5,261.5
	H61.4v-76.4h42.1c22.1,0,39,17,39,39C142.6,244.5,125.6,261.5,103.5,261.5z"/>
<polygon class="st0" points="238.1,0.1 306.1,0.1 306.1,249.6 238.1,317.5 "/>
<g>
		<radialGradient id="SVGID_1_" cx="30.0071" cy="579.7831" r="1" gradientTransform="matrix(310.722 -314.3426 314.3426 310.722 -191230.3281 -170406.2031)" gradientUnits="userSpaceOnUse">
		<stop  offset="0" style="stop-color:#34AED6"/>
		<stop  offset="0.3" style="stop-color:#34AED6"/>
		<stop  offset="0.37" style="stop-color:#38AFD1"/>
		<stop  offset="0.4843" style="stop-color:#43B0C3"/>
		<stop  offset="0.6285" style="stop-color:#52B2AA"/>
		<stop  offset="0.7972" style="stop-color:#63B583"/>
		<stop  offset="0.9844" style="stop-color:#74B848"/>
		<stop  offset="1" style="stop-color:#75B843"/>
	</radialGradient>
	<path class="st1" d="M466.8,131.7L344.2,312.3c-1.5,2.2,0.1,5.3,2.8,5.3c0,0,1.3,0,2.3-0.8l122.2-123.9l-4-5.8
		c-4.8-8.3-7.5-17.9-7.5-28.1l0,0l0,0C460,149,462.4,139.7,466.8,131.7 M645.3,0.1h-71.2c-11.3,0-21.8,5.6-28.2,14.9l-16.1,23.8
		c-8.8,13-25.4,53.5,2,92.7L650.9,10.7C654.4,6.7,650.8,0.1,645.3,0.1"/>
		<radialGradient id="SVGID_2_" cx="30.0071" cy="579.7831" r="1" gradientTransform="matrix(318.705 319.4245 -319.4245 318.705 175973.3906 -194364.9531)" gradientUnits="userSpaceOnUse">
		<stop  offset="0" style="stop-color:#34AED6"/>
		<stop  offset="6.180393e-02" style="stop-color:#44ACD4"/>
		<stop  offset="0.1626" style="stop-color:#61A4CC"/>
		<stop  offset="0.2899" style="stop-color:#8193BE"/>
		<stop  offset="0.4372" style="stop-color:#9E75A6"/>
		<stop  offset="0.5" style="stop-color:#A8639A"/>
		<stop  offset="1" style="stop-color:#EB5D40"/>
	</radialGradient>
	<path class="st2" d="M531.9,131.5l-60.4,61.3l-4-5.8c-4.8-8.3-7.5-17.9-7.5-28.1l0,0c0,10.2,2.7,19.9,7.5,28.1l4,5.8L546,302.6
		c6.3,9.3,16.9,14.9,28.2,14.9h71.2c5.5,0,8.7-6.1,5.6-10.6L531.9,131.5C531.9,131.6,531.9,131.5,531.9,131.5 M529.9,38.7l-63.1,93
		l63-92.9C529.8,38.8,529.9,38.7,529.9,38.7 M424.7,0.1h-71.2c-5.5,0-8.7,6.1-5.6,10.6l79.8,117.6l60.9-60.8L452.8,15
		C446.5,5.7,436,0.1,424.7,0.1"/>
	<path class="st3" d="M531.9,131.5L531.9,131.5L531.9,131.5L531.9,131.5L531.9,131.5 M529.9,38.7L529.9,38.7
		C529.8,38.8,529.8,38.8,529.9,38.7L529.9,38.7C529.8,38.8,529.8,38.8,529.9,38.7"/>
		<radialGradient id="SVGID_3_" cx="30.0071" cy="579.7831" r="1" gradientTransform="matrix(310.722 -314.3426 314.3426 310.722 -191230.3281 -170406.2031)" gradientUnits="userSpaceOnUse">
		<stop  offset="0" style="stop-color:#00A2CB"/>
		<stop  offset="0.3" style="stop-color:#00A2CB"/>
		<stop  offset="0.3724" style="stop-color:#00A2C6"/>
		<stop  offset="0.4896" style="stop-color:#00A3B8"/>
		<stop  offset="0.6372" style="stop-color:#20A5A0"/>
		<stop  offset="0.8093" style="stop-color:#3AA77B"/>
		<stop  offset="1" style="stop-color:#4EAA47"/>
	</radialGradient>
	<path class="st4" d="M529.8,38.8L529.8,38.8c-8.8,13.1-25.4,53.5,2,92.7l0,0C504.4,92.2,521.1,51.7,529.8,38.8"/>
		<radialGradient id="SVGID_4_" cx="30.0071" cy="579.7831" r="1" gradientTransform="matrix(318.705 319.4245 -319.4245 318.705 175973.3906 -194364.9531)" gradientUnits="userSpaceOnUse">
		<stop  offset="0" style="stop-color:#00A2CB"/>
		<stop  offset="6.419285e-02" style="stop-color:#009FC9"/>
		<stop  offset="0.1702" style="stop-color:#3C96C1"/>
		<stop  offset="0.305" style="stop-color:#6284B2"/>
		<stop  offset="0.4617" style="stop-color:#81659B"/>
		<stop  offset="0.5" style="stop-color:#875C95"/>
		<stop  offset="1" style="stop-color:#BE5642"/>
	</radialGradient>
	<path class="st5" d="M529.8,38.8l-63,92.9c-4.4,8-6.8,17.3-6.8,27.1c0,10.2,2.7,19.9,7.5,28.1l4,5.8l60.4-61.3l0,0
		C504.5,92.3,521,51.9,529.8,38.8L529.8,38.8"/>
</g>
</svg>
